<?xml version="1.0" encoding="utf-8"?>
<!-- Generator: Adobe Illustrator 18.0.0, SVG Export Plug-In . SVG Version: 6.00 Build 0)  -->
<!DOCTYPE svg PUBLIC "-//W3C//DTD SVG 1.1//EN" "http://www.w3.org/Graphics/SVG/1.1/DTD/svg11.dtd">
<svg version="1.1" id="Layer_1" xmlns="http://www.w3.org/2000/svg" xmlns:xlink="http://www.w3.org/1999/xlink" x="0px" y="0px"
	 viewBox="0 84.5 1280 660" enable-background="new 0 84.5 1280 660" xml:space="preserve">
<g>
	<g>
		<path d="M343.6,715.8H113.5V557.1h230.1V715.8z M120.6,707.9h214.3V565.1H120.6C120.6,565.1,120.6,707.9,120.6,707.9z"/>
	</g>
	<g>
		<path d="M515,486.5H400.7V419h113.5v67.5H515z M404.7,482.5h105.5V423H404.7V482.5z"/>
	</g>
	<g>
		<g>
			<path d="M144.4,530.1c-0.8,0-0.8,0-1.6-0.8c-0.8-0.8-0.8-2.4,0-3.2c0.8-0.8,2.4-0.8,3.2,0c0.8,0.8,0.8,1.6,0,2.4l0,0
				C146,530.1,145.2,530.1,144.4,530.1z"/>
		</g>
		<g>
			<path d="M100.8,573.8c-0.8,0-0.8,0-1.6-0.8c-0.8-0.8-0.8-2.4,0-3.2l0.8-0.8c0.8-0.8,2.4-0.8,3.2,0c0.8,0.8,0.8,2.4,0,3.2
				l-0.8,0.8C101.6,573.8,101.6,573.8,100.8,573.8z M107.1,567.4c-0.8,0-0.8,0-1.6-0.8c-0.8-0.8-0.8-2.4,0-3.2l0.8-0.8
				c0.8-0.8,2.4-0.8,3.2,0c0.8,0.8,0.8,2.4,0,3.2l-0.8,0.8C107.9,567.4,107.9,567.4,107.1,567.4z M113.5,561.1c-0.8,0-0.8,0-1.6-0.8
				c-0.8-0.8-0.8-2.4,0-3.2l0.8-0.8c0.8-0.8,2.4-0.8,3.2,0c0.8,0.8,0.8,2.4,0,3.2l-0.8,0.8C114.3,561.1,113.5,561.1,113.5,561.1z
				 M119.8,554.7c-0.8,0-0.8,0-1.6-0.8c-0.8-0.8-0.8-2.4,0-3.2l0.8-0.8c0.8-0.8,2.4-0.8,3.2,0c0.8,0.8,0.8,2.4,0,3.2l-0.8,0.8
				C120.6,554.7,119.8,554.7,119.8,554.7z M126.2,548.4c-0.8,0-0.8,0-1.6-0.8c-0.8-0.8-0.8-2.4,0-3.2l0.8-0.8c0.8-0.8,2.4-0.8,3.2,0
				c0.8,0.8,0.8,2.4,0,3.2l-1.6,1.6H126.2z M131.7,542.8c-0.8,0-0.8,0-1.6-0.8c-0.8-0.8-0.8-2.4,0-3.2l0.8-0.8
				c0.8-0.8,2.4-0.8,3.2,0c0.8,0.8,0.8,2.4,0,3.2l-0.8,0.8C133.3,542,132.5,542.8,131.7,542.8z M138.1,536.5c-0.8,0-0.8,0-1.6-0.8
				c-0.8-0.8-0.8-2.4,0-3.2l0.8-0.8c0.8-0.8,2.4-0.8,3.2,0c0.8,0.8,0.8,2.4,0,3.2l-0.8,0.8C139.7,535.7,138.9,536.5,138.1,536.5z"/>
		</g>
		<g>
			<path d="M95.2,579.3c-0.8,0-0.8,0-1.6-0.8c-0.8-0.8-0.8-2.4,0-3.2c0.8-0.8,2.4-0.8,3.2,0c0.8,0.8,0.8,1.6,0,2.4l0,0
				C96,579.3,95.2,579.3,95.2,579.3z"/>
		</g>
	</g>
	<g>
		<g>
			<path d="M112.7,717.4c-0.8,0-0.8,0-1.6-0.8c-0.8-0.8-0.8-2.4,0-3.2s2.4-0.8,3.2,0c0.8,0.8,0.8,1.6,0,2.4l0,0
				C113.5,717.4,113.5,717.4,112.7,717.4z"/>
		</g>
		<g>
			<path d="M100.8,729.3c-0.8,0-0.8,0-1.6-0.8c-0.8-0.8-0.8-2.4,0-3.2l0.8-0.8c0.8-0.8,2.4-0.8,3.2,0c0.8,0.8,0.8,2.4,0,3.2
				l-0.8,0.8C101.6,729.3,101.6,729.3,100.8,729.3z M107.1,723.8c-0.8,0-0.8,0-1.6-0.8c-0.8-0.8-0.8-2.4,0-3.2l0.8-0.8
				c0.8-0.8,2.4-0.8,3.2,0c0.8,0.8,0.8,2.4,0,3.2l-0.8,0.8C107.9,723,107.1,723.8,107.1,723.8z"/>
		</g>
		<g>
			<path d="M95.2,735.7c-0.8,0-0.8,0-1.6-0.8c-0.8-0.8-0.8-2.4,0-3.2c0.8-0.8,2.4-0.8,3.2,0c0.8,0.8,0.8,1.6,0,2.4l0,0
				C96,734.9,95.2,735.7,95.2,735.7z"/>
		</g>
	</g>
	<g>
		<g>
			<path d="M371.4,531.7c-0.8,0-0.8,0-1.6-0.8c-0.8-0.8-0.8-2.4,0-3.2c0.8-0.8,2.4-0.8,3.2,0c0.8,0.8,0.8,1.6,0,2.4l0,0
				C372.2,531.7,372.2,531.7,371.4,531.7z"/>
		</g>
		<g>
			<path d="M330.1,573c-0.8,0-0.8,0-1.6-0.8c-0.8-0.8-0.8-2.4,0-3.2l0.8-0.8c0.8-0.8,2.4-0.8,3.2,0c0.8,0.8,0.8,2.4,0,3.2l-0.8,0.8
				C330.9,573,330.9,573,330.1,573z M335.7,567.4c-0.8,0-0.8,0-1.6-0.8s-0.8-2.4,0-3.2l0.8-0.8c0.8-0.8,2.4-0.8,3.2,0
				c0.8,0.8,0.8,2.4,0,3.2l-0.8,0.8C337.3,566.6,336.5,567.4,335.7,567.4z M342,561.1c-0.8,0-0.8,0-1.6-0.8c-0.8-0.8-0.8-2.4,0-3.2
				l0.8-0.8c0.8-0.8,2.4-0.8,3.2,0s0.8,2.4,0,3.2l-0.8,0.8C342.8,561.1,342.8,561.1,342,561.1z M347.6,555.5c-0.8,0-0.8,0-1.6-0.8
				c-0.8-0.8-0.8-2.4,0-3.2l0.8-0.8c0.8-0.8,2.4-0.8,3.2,0c0.8,0.8,0.8,2.4,0,3.2l-0.8,0.8C349.2,554.7,348.4,555.5,347.6,555.5z
				 M353.9,549.2c-0.8,0-0.8,0-1.6-0.8c-0.8-0.8-0.8-2.4,0-3.2l0.8-0.8c0.8-0.8,2.4-0.8,3.2,0c0.8,0.8,0.8,2.4,0,3.2l-0.8,0.8
				C354.7,549.2,353.9,549.2,353.9,549.2z M359.5,543.6c-0.8,0-0.8,0-1.6-0.8c-0.8-0.8-0.8-2.4,0-3.2l0.8-0.8c0.8-0.8,2.4-0.8,3.2,0
				c0.8,0.8,0.8,2.4,0,3.2l-0.8,0.8C361.1,543.6,360.3,543.6,359.5,543.6z M365.8,537.3c-0.8,0-0.8,0-1.6-0.8
				c-0.8-0.8-0.8-2.4,0-3.2l0.8-0.8c0.8-0.8,2.4-0.8,3.2,0c0.8,0.8,0.8,2.4,0,3.2l-0.8,0.8C366.6,537.3,365.8,537.3,365.8,537.3z"/>
		</g>
		<g>
			<path d="M324.6,578.5c-0.8,0-0.8,0-1.6-0.8c-0.8-0.8-0.8-2.4,0-3.2c0.8-0.8,2.4-0.8,3.2,0c0.8,0.8,0.8,1.6,0,2.4l0,0
				C325.4,578.5,325.4,578.5,324.6,578.5z"/>
		</g>
	</g>
	<g>
		<g>
			<path d="M371.4,688.1c-0.8,0-0.8,0-1.6-0.8c-0.8-0.8-0.8-2.4,0-3.2c0.8-0.8,2.4-0.8,3.2,0c0.8,0.8,0.8,1.6,0,2.4l0,0
				C372.2,688.1,372.2,688.1,371.4,688.1z"/>
		</g>
		<g>
			<path d="M330.1,729.3c-0.8,0-0.8,0-1.6-0.8s-0.8-2.4,0-3.2l0.8-0.8c0.8-0.8,2.4-0.8,3.2,0s0.8,2.4,0,3.2l-0.8,0.8
				C330.9,729.3,330.1,729.3,330.1,729.3z M335.7,723.8c-0.8,0-0.8,0-1.6-0.8c-0.8-0.8-0.8-2.4,0-3.2l0.8-0.8c0.8-0.8,2.4-0.8,3.2,0
				c0.8,0.8,0.8,2.4,0,3.2l-0.8,0.8C336.5,723.8,336.5,723.8,335.7,723.8z M342,717.4c-0.8,0-0.8,0-1.6-0.8c-0.8-0.8-0.8-2.4,0-3.2
				l0.8-0.8c0.8-0.8,2.4-0.8,3.2,0c0.8,0.8,0.8,2.4,0,3.2l-0.8,0.8C342.8,717.4,342,717.4,342,717.4z M347.6,711.9
				c-0.8,0-0.8,0-1.6-0.8c-0.8-0.8-0.8-2.4,0-3.2l0.8-0.8c0.8-0.8,2.4-0.8,3.2,0s0.8,2.4,0,3.2l-0.8,0.8
				C348.4,711.9,348.4,711.9,347.6,711.9z M353.9,705.5c-0.8,0-0.8,0-1.6-0.8c-0.8-0.8-0.8-2.4,0-3.2l0.8-0.8c0.8-0.8,2.4-0.8,3.2,0
				c0.8,0.8,0.8,2.4,0,3.2l-0.8,0.8C354.7,705.5,353.9,705.5,353.9,705.5z M359.5,700c-0.8,0-0.8,0-1.6-0.8c-0.8-0.8-0.8-2.4,0-3.2
				l0.8-0.8c0.8-0.8,2.4-0.8,3.2,0c0.8,0.8,0.8,2.4,0,3.2l-0.8,0.8C360.3,700,360.3,700,359.5,700z M365.8,693.6
				c-0.8,0-0.8,0-1.6-0.8c-0.8-0.8-0.8-2.4,0-3.2l0.8-0.8c0.8-0.8,2.4-0.8,3.2,0c0.8,0.8,0.8,2.4,0,3.2l-0.8,0.8
				C366.6,693.6,365.8,693.6,365.8,693.6z"/>
		</g>
		<g>
			<path d="M324.6,734.9c-0.8,0-0.8,0-1.6-0.8c-0.8-0.8-0.8-2.4,0-3.2c0.8-0.8,2.4-0.8,3.2,0s0.8,1.6,0,2.4l0,0
				C325.4,734.9,324.6,734.9,324.6,734.9z"/>
		</g>
	</g>
	<g>
		<g>
			<path d="M466.6,264.3c-0.8,0-0.8,0-1.6-0.8c-0.8-0.8-0.8-1.6,0-2.4l0,0c0.8-0.8,2.4-0.8,3.2,0s0.8,2.4,0,3.2
				C467.4,263.5,466.6,264.3,466.6,264.3z"/>
		</g>
		<g>
			<path d="M472.2,258c-0.8,0-0.8,0-1.6-0.8c-0.8-0.8-0.8-2.4,0-3.2l0.8-0.8c0.8-0.8,2.4-0.8,3.2,0c0.8,0.8,0.8,2.4,0,3.2l-0.8,0.8
				C473.8,258,473,258,472.2,258z M478.5,251.6c-0.8,0-0.8,0-1.6-0.8c-0.8-0.8-0.8-2.4,0-3.2l0.8-0.8c0.8-0.8,2.4-0.8,3.2,0
				c0.8,0.8,0.8,2.4,0,3.2l-0.8,0.8C480.1,251.6,479.3,251.6,478.5,251.6z M484.9,245.3c-0.8,0-0.8,0-1.6-0.8s-0.8-2.4,0-3.2
				l0.8-0.8c0.8-0.8,2.4-0.8,3.2,0c0.8,0.8,0.8,2.4,0,3.2l-0.8,0.8C486.4,245.3,485.7,245.3,484.9,245.3z M491.2,238.9
				c-0.8,0-0.8,0-1.6-0.8c-0.8-0.8-0.8-2.4,0-3.2l0.8-0.8c0.8-0.8,2.4-0.8,3.2,0c0.8,0.8,0.8,2.4,0,3.2l-0.8,0.8
				C492.8,238.9,492,238.9,491.2,238.9z M497.6,232.6c-0.8,0-0.8,0-1.6-0.8c-0.8-0.8-0.8-2.4,0-3.2l0.8-0.8c0.8-0.8,2.4-0.8,3.2,0
				c0.8,0.8,0.8,2.4,0,3.2l-0.8,0.8C499.1,232.6,498.4,232.6,497.6,232.6z M503.9,226.2c-0.8,0-0.8,0-1.6-0.8
				c-0.8-0.8-0.8-2.4,0-3.2l0.8-0.8c0.8-0.8,2.4-0.8,3.2,0c0.8,0.8,0.8,2.4,0,3.2l-0.8,0.8C505.5,226.2,504.7,226.2,503.9,226.2z
				 M510.3,219.9c-0.8,0-0.8,0-1.6-0.8c-0.8-0.8-0.8-2.4,0-3.2l0.8-0.8c0.8-0.8,2.4-0.8,3.2,0c0.8,0.8,0.8,2.4,0,3.2l-0.8,0.8
				C511.8,219.9,511,219.9,510.3,219.9z M516.6,213.5c-0.8,0-0.8,0-1.6-0.8c-0.8-0.8-0.8-2.4,0-3.2l0.8-0.8c0.8-0.8,2.4-0.8,3.2,0
				c0.8,0.8,0.8,2.4,0,3.2l-0.8,0.8C518.2,213.5,517.4,213.5,516.6,213.5z M523,207.2c-0.8,0-0.8,0-1.6-0.8c-0.8-0.8-0.8-2.4,0-3.2
				l0.8-0.8c0.8-0.8,2.4-0.8,3.2,0c0.8,0.8,0.8,2.4,0,3.2l-0.8,0.8C524.5,207.2,523.7,207.2,523,207.2z"/>
		</g>
		<g>
			<path d="M529.3,200.8c-0.8,0-0.8,0-1.6-0.8c-0.8-0.8-0.8-1.6,0-2.4l0,0c0.8-0.8,2.4-0.8,3.2,0c0.8,0.8,0.8,2.4,0,3.2
				C530.9,200.8,530.1,200.8,529.3,200.8z"/>
		</g>
	</g>
	<g>
		<g>
			<path d="M64.3,264.3c-0.8,0-0.8,0-1.6-0.8c-0.8-0.8-0.8-1.6,0-2.4l0,0c0.8-0.8,2.4-0.8,3.2,0s0.8,2.4,0,3.2
				C65.9,264.3,65.1,264.3,64.3,264.3z"/>
		</g>
		<g>
			<path d="M70.6,258c-0.8,0-0.8,0-1.6-0.8c-0.8-0.8-0.8-2.4,0-3.2l0.8-0.8c0.8-0.8,2.4-0.8,3.2,0c0.8,0.8,0.8,2.4,0,3.2l-1.6,1.6
				H70.6z M77,251.6c-0.8,0-0.8,0-1.6-0.8c-0.8-0.8-0.8-2.4,0-3.2l0.8-0.8c0.8-0.8,2.4-0.8,3.2,0c0.8,0.8,0.8,2.4,0,3.2l-0.8,0.8
				C77.8,251.6,77,251.6,77,251.6z M83.3,245.3c-0.8,0-0.8,0-1.6-0.8c-0.8-0.8-0.8-2.4,0-3.2l0.8-0.8c0.8-0.8,2.4-0.8,3.2,0
				c0.8,0.8,0.8,2.4,0,3.2l-0.8,0.8C84.1,245.3,83.3,245.3,83.3,245.3z M89.7,238.9c-0.8,0-0.8,0-1.6-0.8c-0.8-0.8-0.8-2.4,0-3.2
				l0.8-0.8c0.8-0.8,2.4-0.8,3.2,0c0.8,0.8,0.8,2.4,0,3.2l-0.8,0.8C90.5,238.9,89.7,238.9,89.7,238.9z M96,232.6
				c-0.8,0-0.8,0-1.6-0.8c-0.8-0.8-0.8-2.4,0-3.2l0.8-0.8c0.8-0.8,2.4-0.8,3.2,0c0.8,0.8,0.8,2.4,0,3.2l-0.8,0.8
				C96.8,232.6,96,232.6,96,232.6z M102.4,226.2c-0.8,0-0.8,0-1.6-0.8c-0.8-0.8-0.8-2.4,0-3.2l0.8-0.8c0.8-0.8,2.4-0.8,3.2,0
				c0.8,0.8,0.8,2.4,0,3.2l-1.6,1.6H102.4z M108.7,219.9c-0.8,0-0.8,0-1.6-0.8c-0.8-0.8-0.8-2.4,0-3.2l0.8-0.8
				c0.8-0.8,2.4-0.8,3.2,0c0.8,0.8,0.8,2.4,0,3.2l-0.8,0.8C109.5,219.9,108.7,219.9,108.7,219.9z M115.1,213.5c-0.8,0-0.8,0-1.6-0.8
				c-0.8-0.8-0.8-2.4,0-3.2l0.8-0.8c0.8-0.8,2.4-0.8,3.2,0c0.8,0.8,0.8,2.4,0,3.2l-0.8,0.8C115.9,213.5,115.1,213.5,115.1,213.5z
				 M121.4,207.2c-0.8,0-0.8,0-1.6-0.8c-0.8-0.8-0.8-2.4,0-3.2l0.8-0.8c0.8-0.8,2.4-0.8,3.2,0c0.8,0.8,0.8,2.4,0,3.2l-0.8,0.8
				C122.2,207.2,121.4,207.2,121.4,207.2z"/>
		</g>
		<g>
			<path d="M127.8,200.8c-0.8,0-0.8,0-1.6-0.8c-0.8-0.8-0.8-1.6,0-2.4l0,0c0.8-0.8,2.4-0.8,3.2,0c0.8,0.8,0.8,2.4,0,3.2
				C128.6,200.8,128.6,200.8,127.8,200.8z"/>
		</g>
	</g>
	<g>
		<rect x="157.1" y="304" width="261.1" height="11.9"/>
	</g>
	<g>
		<rect x="227" y="335.7" width="121.4" height="11.9"/>
	</g>
	<g>
		<rect x="100" y="256.4" width="33.3" height="11.9"/>
	</g>
	<g>
		<path d="M165.1,454.8c-9.5,0-17.5-7.9-17.5-17.5c0-9.5,7.9-17.5,17.5-17.5s17.5,7.9,17.5,17.5
			C182.5,446.8,174.6,454.8,165.1,454.8z M165.1,423c-7.9,0-14.3,6.3-14.3,14.3c0,7.9,6.3,14.3,14.3,14.3c7.9,0,14.3-6.3,14.3-14.3
			C179.3,429.4,172.2,423,165.1,423z"/>
	</g>
	<g>
		<path d="M357.1,454.8H210.3v-16.7l-19-19h165.9V454.8z M214.3,450.8h138.9V423H201.6l12.7,12.7V450.8z"/>
	</g>
	<g>
		<circle cx="442.8" cy="174.6" r="7.9"/>
	</g>
	<g>
		<circle cx="474.5" cy="174.6" r="7.9"/>
	</g>
	<g>
		<circle cx="506.3" cy="174.6" r="7.9"/>
	</g>
	<path d="M595.2,85.8H192.8v31.7h-31.7v31.7h-30.2v92.8H81.7v150.8h49.2v142c0,0.8,0.8,1.6,1.6,1.6c0.8,0,2.4-0.8,2.4-1.6v-142
		h350.8V242.1H134.9v-41.3h392.8v440.4H373.8V527.8H149.2c-0.8,0-1.6,0.8-1.6,1.6c0,0.8,0.8,1.6,1.6,1.6h220.6v149.2
		c0,0.8,0.8,1.6,1.6,1.6c0.8,0,1.6-0.8,1.6-1.6v-34.9h158.7v-31.7h31.7v-31.7h31.7V85.8z M89.7,384.9V280.2h388.8v104.7H89.7z
		 M478.5,276.2H89.7V250h388.8V276.2z M134.9,196.9v-43.6h392.8v43.6H134.9z M559.5,609.5h-27.8V149.2H165.1v-27.8h394.4V609.5z
		 M591.2,577.8h-27.8V117.5H196.8V89.7h394.4V577.8z"/>
	<g>
		<rect x="400.7" y="498.4" width="113.5" height="4"/>
	</g>
	<g>
		<rect x="400.7" y="514.3" width="63.5" height="4"/>
	</g>
	<g>
		<rect x="228.5" y="434.9" width="111.1" height="4"/>
	</g>
	<g>
		<path d="M165.1,502.4c-9.5,0-17.5-7.9-17.5-17.5c0-9.5,7.9-17.5,17.5-17.5s17.5,7.9,17.5,17.5
			C182.5,494.4,174.6,502.4,165.1,502.4z M165.1,470.6c-7.9,0-14.3,6.3-14.3,14.3c0,7.9,6.3,14.3,14.3,14.3
			c7.9,0,14.3-6.3,14.3-14.3C179.3,477,172.2,470.6,165.1,470.6z"/>
	</g>
	<g>
		<path d="M357.1,502.4H210.3v-16.7l-19-19h165.9V502.4z M214.3,498.4h138.9v-27.8H201.6l12.7,12.7V498.4z"/>
	</g>
	<g>
		<rect x="228.5" y="482.5" width="111.1" height="4"/>
	</g>
	<g>
		<circle cx="149.2" cy="595.2" r="15.9"/>
	</g>
	<g>
		<polygon points="180.9,579.3 196.8,595.2 196.8,627 323.8,627 323.8,579.3 		"/>
	</g>
	<g>
		<rect x="212.7" y="593.6" fill="#FFFFFF" width="95.2" height="4"/>
	</g>
	<g>
		<rect x="212.7" y="609.5" fill="#FFFFFF" width="95.2" height="4"/>
	</g>
	<g>
		<circle cx="149.2" cy="658.7" r="15.9"/>
	</g>
	<g>
		<polygon points="180.9,642.8 196.8,658.7 196.8,690.4 323.8,690.4 323.8,642.8 		"/>
	</g>
	<g>
		<rect x="212.7" y="657.1" fill="#FFFFFF" width="95.2" height="4"/>
	</g>
	<g>
		<rect x="212.7" y="673" fill="#FFFFFF" width="95.2" height="4"/>
	</g>
	<g>
		<polygon points="450.7,436.5 450.7,468.2 466.6,452.4 		"/>
	</g>
	<path d="M400.7,542v36.5h51.6V542L400.7,542L400.7,542z M443.6,546l-38.9,26.2V546H443.6z M409.5,573.8l39.7-27v27H409.5z"/>
	<path d="M400.7,589.7v36.5h51.6v-36.5H400.7z M443.6,593.6l-38.9,26.2v-26.2L443.6,593.6L443.6,593.6z M409.5,621.4l39.7-27v27
		H409.5z"/>
	<path d="M464.2,589.7v36.5h51.6v-36.5H464.2z M507.1,593.6l-38.9,26.2v-26.2L507.1,593.6L507.1,593.6z M473,621.4l39.7-27v27H473z"
		/>
	<path d="M464.2,542v36.5h51.6V542L464.2,542L464.2,542z M507.1,546l-39.7,27v-27H507.1L507.1,546z M473,573.8l38.9-26.2v26.2H473z"
		/>
	<g>
		<circle fill="#FFFFFF" cx="847.5" cy="707.9" r="7.9"/>
	</g>
	<path d="M941.9,434.9H752.3c-5.6,0-10.3,4.8-10.3,10.3v269c0,5.6,4.8,10.3,10.3,10.3h189.7c5.6,0,10.3-4.8,10.3-10.3v-269
		C952.3,439.7,947.5,434.9,941.9,434.9z M934.8,454v234.9H759.4V454H934.8z"/>
	<g>
		<rect x="755.5" y="543.6" width="183.3" height="4"/>
	</g>
	<g>
		<rect x="776.1" y="569" width="79.4" height="4"/>
	</g>
	<g>
		<rect x="776.1" y="584.9" width="79.4" height="4"/>
	</g>
	<g>
		<rect x="776.1" y="600.8" width="79.4" height="4"/>
	</g>
	<g>
		<rect x="776.1" y="616.6" width="79.4" height="4"/>
	</g>
	<g>
		<rect x="776.1" y="632.5" width="79.4" height="4"/>
	</g>
	<g>
		<rect x="776.1" y="648.4" width="79.4" height="4"/>
	</g>
	<g>
		<rect x="776.1" y="664.3" width="79.4" height="4"/>
	</g>
	<g>
		<rect x="756.3" y="482.5" width="181.7" height="4"/>
	</g>
	<g>
		<rect x="776.1" y="504" width="142.8" height="7.9"/>
	</g>
	<g>
		<rect x="815.8" y="519.8" width="63.5" height="7.9"/>
	</g>
	<g>
		<rect x="776.1" y="464.3" width="15.9" height="7.9"/>
	</g>
	<path d="M920.5,569h-51.6v34.9h51.6V569z M911.8,573l-38.9,26.2V573H911.8z M878.5,600l38.1-26.2V600H878.5z"/>
	<path d="M920.5,616.6h-51.6v34.9h51.6V616.6z M911.8,620.6l-38.9,26.2v-26.2H911.8z M878.5,647.6l38.1-26.2v26.2H878.5z"/>
	<g>
		<path d="M1207,355.6h-98.4c-5.6,0-9.5,4-9.5,9.5v191.2c0,5.6,4,9.5,9.5,9.5h98.4c5.6,0,9.5-4,9.5-9.5V365.1
			C1216.5,359.5,1212.5,355.6,1207,355.6z M1205.4,369.8v161.1c0,1.6-1.6,3.2-3.2,3.2h-88.9c-1.6,0-3.2-1.6-3.2-3.2V369.8
			c0-1.6,1.6-3.2,3.2-3.2h88.9C1203.8,366.7,1205.4,367.5,1205.4,369.8z"/>
	</g>
	<g>
		<rect x="1118.1" y="388.1" width="79.4" height="54"/>
	</g>
	<g>
		<path d="M1153.8,492.1h-35.7v-21.4h35.7V492.1z M1122.1,488.1h27.8v-13.5h-27.8V488.1z"/>
	</g>
	<g>
		<path d="M1197.5,492.1h-35.7v-21.4h35.7V492.1z M1165.7,488.1h27.8v-13.5h-27.8V488.1z"/>
	</g>
	<g>
		<rect x="1118.1" y="454" width="79.4" height="4"/>
	</g>
	<g>
		<rect x="1118.1" y="501.6" width="35.7" height="4"/>
	</g>
	<g>
		<rect x="1118.1" y="517.4" width="35.7" height="4"/>
	</g>
	<g>
		<rect x="1161.8" y="517.4" width="35.7" height="4"/>
	</g>
	<g>
		<rect x="1161.8" y="501.6" width="35.7" height="4"/>
	</g>
	<g>
		<polygon fill="#FFFFFF" points="1157,403.2 1157,426.2 1168.1,415.1 		"/>
	</g>
	<g>
		<rect x="1118.1" y="373" width="15.9" height="7.9"/>
	</g>
	<g>
		<circle fill="#FFFFFF" cx="1160.2" cy="550" r="7.9"/>
	</g>
	<g>
		<g>
			<path d="M66.7,410.3c-0.8,0-0.8,0-1.6-0.8c-0.8-0.8-0.8-1.6,0-2.4l0,0c0.8-0.8,2.4-0.8,3.2,0c0.8,0.8,0.8,2.4,0,3.2
				C67.5,409.5,67.5,410.3,66.7,410.3z"/>
		</g>
		<g>
			<path d="M71.4,404.8c-0.8,0-0.8,0-1.6-0.8c-0.8-0.8-0.8-2.4,0-3.2l0.8-0.8c0.8,0.8,1.6,0.8,2.4,1.6c0.8,0.8,0.8,2.4,0,3.2
				l-0.8,0.8C72.2,404.8,72.2,404.8,71.4,404.8z M77,400c-0.8,0-0.8,0-1.6-0.8c-0.8-0.8-0.8-2.4,0-3.2l0.8-0.8
				c0.8-0.8,2.4-0.8,3.2,0s0.8,2.4,0,3.2l-0.8,0.8C77.8,400,77,400,77,400z"/>
		</g>
		<g>
			<path d="M81.7,394.4c-0.8,0-0.8,0-1.6-0.8c-0.8-0.8-0.8-1.6,0-2.4l0,0c0.8-0.8,2.4-0.8,3.2,0c0.8,0.8,0.8,2.4,0,3.2
				C83.3,394.4,82.5,394.4,81.7,394.4z"/>
		</g>
	</g>
	<g>
		<g>
			<path d="M466.6,410.3c-0.8,0-0.8,0-1.6-0.8c-0.8-0.8-0.8-1.6,0-2.4l0,0c0.8-0.8,2.4-0.8,3.2,0s0.8,2.4,0,3.2
				C467.4,409.5,466.6,410.3,466.6,410.3z"/>
		</g>
		<g>
			<path d="M472.2,404c-0.8,0-0.8,0-1.6-0.8c-0.8-0.8-0.8-2.4,0-3.2l0.8-0.8c0.8-0.8,2.4-0.8,3.2,0c0.8,0.8,0.8,2.4,0,3.2l-0.8,0.8
				C473.8,404,473,404,472.2,404z M478.5,397.6c-0.8,0-0.8,0-1.6-0.8c-0.8-0.8-0.8-2.4,0-3.2l0.8-0.8c0.8-0.8,2.4-0.8,3.2,0
				c0.8,0.8,0.8,2.4,0,3.2l-0.8,0.8C480.1,397.6,479.3,397.6,478.5,397.6z M484.9,391.3c-0.8,0-0.8,0-1.6-0.8
				c-0.8-0.8-0.8-2.4,0-3.2l0.8-0.8c0.8-0.8,2.4-0.8,3.2,0c0.8,0.8,0.8,2.4,0,3.2l-0.8,0.8C486.4,391.3,485.7,391.3,484.9,391.3z
				 M491.2,384.9c-0.8,0-0.8,0-1.6-0.8c-0.8-0.8-0.8-2.4,0-3.2l0.8-0.8c0.8-0.8,2.4-0.8,3.2,0c0.8,0.8,0.8,2.4,0,3.2l-0.8,0.8
				C492.8,384.9,492,384.9,491.2,384.9z M497.6,378.6c-0.8,0-0.8,0-1.6-0.8c-0.8-0.8-0.8-2.4,0-3.2l0.8-0.8c0.8-0.8,2.4-0.8,3.2,0
				c0.8,0.8,0.8,2.4,0,3.2l-0.8,0.8C499.1,378.6,498.4,378.6,497.6,378.6z M503.9,372.2c-0.8,0-0.8,0-1.6-0.8
				c-0.8-0.8-0.8-2.4,0-3.2l0.8-0.8c0.8-0.8,2.4-0.8,3.2,0c0.8,0.8,0.8,2.4,0,3.2l-0.8,0.8C505.5,372.2,504.7,372.2,503.9,372.2z
				 M510.3,365.9c-0.8,0-0.8,0-1.6-0.8c-0.8-0.8-0.8-2.4,0-3.2l0.8-0.8c0.8-0.8,2.4-0.8,3.2,0c0.8,0.8,0.8,2.4,0,3.2l-0.8,0.8
				C511.8,365.9,511,365.9,510.3,365.9z M516.6,359.5c-0.8,0-0.8,0-1.6-0.8c-0.8-0.8-0.8-2.4,0-3.2l0.8-0.8c0.8-0.8,2.4-0.8,3.2,0
				c0.8,0.8,0.8,2.4,0,3.2l-0.8,0.8C518.2,359.5,517.4,359.5,516.6,359.5z M523,353.2c-0.8,0-0.8,0-1.6-0.8c-0.8-0.8-0.8-2.4,0-3.2
				l0.8-0.8c0.8-0.8,2.4-0.8,3.2,0c0.8,0.8,0.8,2.4,0,3.2l-0.8,0.8C524.5,353.2,523.7,353.2,523,353.2z"/>
		</g>
		<g>
			<path d="M529.3,346.8c-0.8,0-0.8,0-1.6-0.8c-0.8-0.8-0.8-1.6,0-2.4l0,0c0.8-0.8,2.4-0.8,3.2,0s0.8,2.4,0,3.2
				C530.9,346.8,530.1,346.8,529.3,346.8z"/>
		</g>
	</g>
</g>
</svg>
