<?xml version="1.0" encoding="utf-8"?>
<!-- Generator: Adobe Illustrator 18.0.0, SVG Export Plug-In . SVG Version: 6.00 Build 0)  -->
<!DOCTYPE svg PUBLIC "-//W3C//DTD SVG 1.1//EN" "http://www.w3.org/Graphics/SVG/1.1/DTD/svg11.dtd">
<svg version="1.1" id="Layer_1" xmlns="http://www.w3.org/2000/svg" xmlns:xlink="http://www.w3.org/1999/xlink" x="0px" y="0px"
	 viewBox="0 70 1280 660" enable-background="new 0 70 1280 660" xml:space="preserve">
<g>
	<g>
		<path d="M737.2,581.7H336.5v-496h400.7V581.7z M340.4,577.8h392.8v-488H340.4V577.8z"/>
	</g>
	<g>
		<path d="M435.7,216.7h-83.3V101.6h83.3V216.7z M356.3,212.7h75.4V105.6h-75.4V212.7z"/>
	</g>
	<g>
		<path d="M721.3,311.9H574.5V101.6h146.8V311.9z M578.5,307.9h138.9V105.6H578.5V307.9z"/>
	</g>
	<g>
		<path d="M499.1,153.2h-51.6v-51.6h51.6V153.2z M451.5,149.2h43.6v-43.6h-43.6V149.2z"/>
	</g>
	<g>
		<path d="M499.1,216.7h-51.6v-51.6h51.6V216.7z M451.5,212.7h43.6v-43.6h-43.6V212.7z"/>
	</g>
	<g>
		<rect x="513.4" y="103.2" width="47.6" height="47.6"/>
	</g>
	<g>
		<path d="M562.6,216.7H511v-51.6h51.6V216.7z M515,212.7h43.6v-43.6H515V212.7z"/>
	</g>
	<g>
		<path d="M721.3,438.9h-67.5v-67.5h67.5V438.9z M657.9,434.9h59.5v-59.5h-59.5V434.9z"/>
	</g>
	<g>
		<path d="M562.6,311.9h-115v-83.3h115.1v83.3H562.6z M451.5,307.9h107.1v-75.4H451.5V307.9z"/>
	</g>
	<g>
		<path d="M499.1,565.9H352.3v-51.6h146.8L499.1,565.9L499.1,565.9z M356.3,561.9h138.9v-43.6H356.3V561.9z"/>
	</g>
	<g>
		<path d="M499.1,502.4H352.3v-51.6h146.8L499.1,502.4L499.1,502.4z M356.3,498.4h138.9v-43.6H356.3V498.4z"/>
	</g>
	<g>
		<path d="M721.3,565.9H574.5V450.8h146.8V565.9z M578.5,561.9h138.9V454.8H578.5V561.9z"/>
	</g>
	<g>
		<path d="M499.1,438.9H352.3V323.8h146.8L499.1,438.9L499.1,438.9z M356.3,434.9h138.9V327.8H356.3V434.9z"/>
	</g>
	<g>
		<rect x="513.4" y="452.4" width="47.6" height="111.1"/>
	</g>
	<g>
		<path d="M435.7,311.9h-83.3v-35.7h83.3V311.9z M356.3,307.9h75.4v-27.8h-75.4V307.9z"/>
	</g>
	<g>
		<rect x="513.4" y="325.4" width="206.3" height="31.7"/>
	</g>
	<g>
		<path d="M642,438.9H511v-67.5h131V438.9z M515,434.9h123v-59.5H515V434.9z"/>
	</g>
	<g>
		<rect x="354.7" y="230.2" width="79.4" height="31.7"/>
	</g>
	<g>
		<path d="M338.8,282.6c-6.3,0-11.1,4.8-11.1,11.1c0,6.3,4.8,11.1,11.1,11.1"/>
	</g>
	<g>
		<path d="M338.8,377.8c-6.3,0-11.1,4.8-11.1,11.1c0,6.3,4.8,11.1,11.1,11.1"/>
	</g>
	<g>
		<path d="M338.8,155.6c-6.3,0-11.1,4.8-11.1,11.1s4.8,11.1,11.1,11.1"/>
	</g>
	<g>
		<path d="M338.8,234.9c-6.3,0-11.1,4.8-11.1,11.1s4.8,11.1,11.1,11.1"/>
	</g>
	<g>
		<path d="M735.6,155.6c6.3,0,11.1,4.8,11.1,11.1s-4.8,11.9-11.1,11.9"/>
	</g>
	<g>
		<path d="M735.6,331c6.3,0,11.1,4.8,11.1,11.1c0,6.3-4.8,11.1-11.1,11.1"/>
	</g>
	<g>
		<path d="M735.6,393.7c6.3,0,11.1,4.8,11.1,11.1c0,6.3-4.8,11.1-11.1,11.1"/>
	</g>
	<g>
		<path d="M735.6,520.6c6.3,0,11.1,4.8,11.1,11.1s-4.8,11.1-11.1,11.1"/>
	</g>
	<g>
		<path d="M338.8,473c-6.3,0-11.1,4.8-11.1,11.1c0,6.3,4.8,11.1,11.1,11.1"/>
	</g>
	<g>
		<path d="M338.8,536.5c-6.3,0-11.1,4.8-11.1,11.1s4.8,11.1,11.1,11.1"/>
	</g>
	<g>
		<path d="M957.8,176.2c-5.6,0-9.5-4.8-9.5-9.5c0-4.8,4.8-9.5,9.5-9.5c4.8,0,9.5,4.8,9.5,9.5C967.3,171.5,962.6,176.2,957.8,176.2z
			 M957.8,160.3c-3.2,0-6.3,2.4-6.3,6.3c0,4,2.4,6.3,6.3,6.3c4,0,6.3-2.4,6.3-6.3C964.2,162.7,961,160.3,957.8,160.3z"/>
	</g>
	<g>
		<path d="M1005.4,154.8c-5.6,0-9.5-4.8-9.5-9.5s4.8-9.5,9.5-9.5s9.5,4.8,9.5,9.5S1011,154.8,1005.4,154.8z M1005.4,138.9
			c-3.2,0-6.3,2.4-6.3,6.3s2.4,6.3,6.3,6.3s6.3-2.4,6.3-6.3S1008.6,138.9,1005.4,138.9z"/>
	</g>
	<g>
		<path d="M981.6,407.1v-4c3.2,0,6.3-2.4,6.3-6.3h4C991.1,402.4,987.2,407.1,981.6,407.1z"/>
	</g>
	<g>
		<path d="M880,388.9h-4c0-9.5,7.9-17.5,17.5-17.5v4C886.4,375.4,880,381.7,880,388.9z"/>
	</g>
	<g>
		<path d="M909.4,208.8c-5.6,0-9.5-4.8-9.5-9.5c0-4.8,4.8-9.5,9.5-9.5c4.8,0,9.5,4.8,9.5,9.5S915,208.8,909.4,208.8z M909.4,192.9
			c-3.2,0-6.3,2.4-6.3,6.3c0,4,2.4,6.3,6.3,6.3c4,0,6.3-2.4,6.3-6.3C915.8,195.3,912.6,192.9,909.4,192.9z"/>
	</g>
	<g>
		<polygon points="1021.3,234.1 874.5,234.1 874.5,135 882.4,135 882.4,226.2 1021.3,226.2 		"/>
	</g>
	<g>
		<polygon points="973.7,185.7 961,173 963.4,170.7 972.9,180.2 998.3,149.2 1001.5,151.6 		"/>
	</g>
	<g>
		<polygon points="926.1,217.5 913.4,204.8 915.8,201.6 925.3,211.1 951.5,172.3 954.6,174.6 		"/>
	</g>
	<g>
		<rect x="889.6" y="198.7" transform="matrix(0.7071 0.7071 -0.7071 0.7071 414.8263 -566.8109)" width="4" height="37.3"/>
	</g>
	<g>
		<rect x="907.8" y="207.2" width="4" height="23.8"/>
	</g>
	<g>
		<rect x="955.4" y="174.6" width="4" height="56.3"/>
	</g>
	<g>
		<rect x="1003.1" y="153.2" width="4" height="77"/>
	</g>
	<g>
		<path fill="none" stroke="#000000" stroke-width="0.5" stroke-miterlimit="10" d="M958.6,388.9"/>
	</g>
	<path d="M981.6,369.1c-1.6,0-4,0-5.6,0.8c-4.8-19-22.2-32.5-42.1-32.5c-13.5,0-25.4,6.3-34.1,16.7c-1.6,0-4-0.8-5.6-0.8
		c-19.8,0-35.7,15.9-35.7,35.7s15.9,35.7,35.7,35.7h87.3c15.1,0,27.8-12.7,27.8-27.8C1009.4,381.7,996.7,369.1,981.6,369.1z
		 M981.6,416.7h-87.3c-15.1,0-27.8-12.7-27.8-27.8s12.7-27.8,27.8-27.8c4.8,0,9.5,1.6,13.5,4c2.4,1.6,4.8,3.2,6.3,4.8l5.6-5.6
		c-2.4-2.4-4.8-4.8-7.9-6.3c-1.6-0.8-2.4-1.6-4-1.6c6.3-7.1,15.9-11.1,25.4-11.1c16.7,0,30.9,11.1,34.9,27
		c-6.3,3.2-11.1,8.7-13.5,15.1l7.1,2.4c3.2-7.9,10.3-13.5,19-13.5c11.1,0,19.8,8.7,19.8,19.8S991.9,416.7,981.6,416.7z"/>
	<g>
		<rect x="751.5" y="403.2" width="115.1" height="4"/>
	</g>
	<g>
		<rect x="751.5" y="530.1" width="142.8" height="4"/>
	</g>
	<path d="M657.1,213.5l-1.6-0.8h-20.6l22.2-44.4l-3.2-2.4l-47.6,47.6v3.2l15.9,15.9l1.6,0.8h20.6l-22.2,44.4l3.2,2.4l47.6-47.6v-3.2
		L657.1,213.5z M633.3,216.7h19l-6.3,11.9h-19L633.3,216.7z"/>
	<path d="M934,473.8c-20.6,0-43.6,5.6-43.6,16.7v76.2c0,11.1,23,16.7,43.6,16.7s43.6-5.6,43.6-16.7v-76.2
		C977.7,479.4,954.6,473.8,934,473.8z M969.7,519c-4.8,4-17.5,7.9-35.7,7.9c-18.3,0-30.9-4-35.7-7.9v-20.6
		c7.9,4.8,22.2,7.1,35.7,7.1s27.8-2.4,35.7-7.1V519z M898.3,523.8c7.9,4.8,22.2,7.1,35.7,7.1s27.8-2.4,35.7-7.1v20.6
		c-4.8,4-17.5,7.9-35.7,7.9c-18.3,0-30.9-4-35.7-7.9V523.8z M934,481.7c23,0,35.7,6.3,35.7,8.7v3.2c-4.8,4-17.5,7.9-35.7,7.9
		c-18.3,0-30.9-4-35.7-7.9v-3.2C898.3,488.1,910.2,481.7,934,481.7z M934,575.4c-23,0-35.7-6.3-35.7-8.7v-17.5
		c7.9,4.8,22.2,7.1,35.7,7.1s27.8-2.4,35.7-7.1v17.5C969.7,569,957,575.4,934,575.4z"/>
	<g>
		<path d="M910.2,519.8c-0.8,0-1.6-0.8-1.6-1.6v-6.3c0-0.8,0.8-1.6,1.6-1.6s1.6,0.8,1.6,1.6v6.3C911.8,519,911,519.8,910.2,519.8z"
			/>
	</g>
	<g>
		<path d="M909.4,544.4c-0.8,0-1.6-0.8-1.6-1.6v-7.1c0-0.8,0.8-1.6,1.6-1.6s1.6,0.8,1.6,1.6v6.3C911.8,543.6,911,544.4,909.4,544.4z
			"/>
	</g>
	<g>
		<path d="M910.2,569c-0.8,0-1.6-0.8-1.6-2.4v-6.3c0-0.8,0.8-1.6,1.6-1.6s1.6,0.8,1.6,1.6v7.1C911.8,568.2,911,569,910.2,569z"/>
	</g>
	<g>
		<path d="M116.7,115.1l-4,4v63.5l1.6,3.2l51.6,29.4c-4.8,7.1-11.1,12.7-18.3,17.5l-4-6.3l-3.2,1.6l4,7.1c-7.9,4-16.7,6.3-26.2,7.1
			v-7.9h-4v7.9c-9.5,0-18.3-2.4-26.2-7.1l4-7.1l-3.2-1.6l-4,7.1c-7.9-4.8-14.3-11.1-19-19l7.1-4l-1.6-3.2l-7.1,4
			c-4-7.9-6.3-16.7-7.1-26.2H65v-4h-7.9c0-9.5,2.4-18.3,6.3-26.2l7.1,4l1.6-3.2l-7.1-4c4.8-7.1,10.3-13.5,17.5-18.3l-4-6.3
			c-19,12.7-30.2,33.3-30.2,56.3c0,37.3,30.2,67.5,67.5,67.5s67.5-30.2,67.5-67.5S153.9,115.1,116.7,115.1z M120.6,180.2v-57.1
			c8.7,0.8,16.7,3.2,23.8,7.1l-4,7.1l3.2,1.6l4-7.1c7.9,4.8,14.3,11.1,19,19l-7.1,4l1.6,3.2l7.1-4c4,7.9,6.3,16.7,7.1,26.2h-7.9v4
			h7.9c0,8.7-2.4,16.7-6.3,23.8L120.6,180.2z"/>
		<polygon points="91.3,147.7 99.2,147.7 99.2,115.1 66.7,115.1 66.7,123.1 91.3,123.1 		"/>
	</g>
	<path d="M180.1,321.4h-127l-4,4v63.5l4,4h127l4-4v-63.5L180.1,321.4z M149.2,356.4l-3.2,3.2l26.2,26.2H59.5l26.2-26.2l-3.2-3.2
		l-26.2,26.2V331l59.5,44.4l59.5-44.4v51.6L149.2,356.4z M61.9,329.4h109.5l-54.8,41.3L61.9,329.4z"/>
	<path d="M124.6,464.3c-32.5,0-59.5,27-59.5,59.5s27,59.5,59.5,59.5s59.5-27,59.5-59.5S157.1,464.3,124.6,464.3z M88.9,561.9V554
		c0-3.2,0.8-4.8,3.2-7.1c7.1-7.1,23.8-6.3,23.8-6.3h2.4v-8.7l-0.8-0.8c0,0-11.1-6.3-11.1-23c0-8.7,3.2-19.8,18.3-19.8
		s18.3,11.1,18.3,19.8c0,15.9-10.3,22.2-11.1,23l-0.8,0.8v8.7h2.4c0,0,16.7,0,23.8,6.3c2.4,1.6,3.2,4,3.2,7.1v7.9
		c-9.5,8.7-21.4,13.5-34.9,13.5S98.4,570.6,88.9,561.9z M163.5,557.9v-4c0-4-1.6-7.1-4-9.5c-6.3-6.3-19.8-7.9-24.6-7.9v-2.4
		c3.2-2.4,11.9-9.5,11.9-25.4c0-15.1-7.9-23.8-22.2-23.8s-22.2,8.7-22.2,23.8c0,15.9,8.7,23.8,11.9,25.4v2.4
		c-4.8,0-17.5,0.8-24.6,7.9c-2.4,2.4-4,6.3-4,9.5v4c-7.9-8.7-12.7-20.6-12.7-33.3C73,496,96,473,124.6,473s51.6,23,51.6,51.6
		C176.2,536.5,171.4,548.4,163.5,557.9z"/>
	<g>
		<polygon points="323,391.3 273,391.3 273,292.1 323,292.1 323,296 276.9,296 276.9,387.3 323,387.3 		"/>
	</g>
	<polygon points="911.8,230.2 907.8,230.2 907.8,260.3 816.6,260.3 816.6,165.1 751.5,165.1 751.5,169.1 812.6,169.1 812.6,339.7 
		751.5,339.7 751.5,343.7 816.6,343.7 816.6,264.3 911.8,264.3 	"/>
	<g>
		<line fill="none" x1="180.1" y1="357.1" x2="275.4" y2="357.1"/>
		<rect x="180.1" y="355.6" width="95.2" height="4"/>
	</g>
	<polygon points="323,169.1 323,165.1 273,165.1 273,204.8 172.2,204.8 172.2,208.8 273,208.8 273,248.4 323,248.4 323,244.5 
		276.9,244.5 276.9,169.1 	"/>
	<polygon points="323,486.5 323,482.5 273,482.5 273,514.3 180.1,514.3 180.1,518.2 273,518.2 273,550 323,550 323,546 276.9,546 
		276.9,486.5 	"/>
	<g>
		<polygon points="1064.9,676.9 542.8,676.9 542.8,579.3 546.8,579.3 546.8,673 1064.9,673 		"/>
	</g>
	<g>
		<path d="M1231.6,710.3H1065V496h166.6V710.3z M1072.9,702.3h150.8V504h-150.8V702.3z"/>
	</g>
	<g>
		<rect x="1084.8" y="514.3" width="95.2" height="4"/>
	</g>
	<g>
		<rect x="1084.8" y="546" width="111.1" height="4"/>
	</g>
	<g>
		<rect x="1100.7" y="561.9" width="79.4" height="4"/>
	</g>
	<g>
		<rect x="1084.8" y="577.8" width="31.7" height="4"/>
	</g>
	<g>
		<rect x="1132.4" y="577.8" width="31.7" height="4"/>
	</g>
	<g>
		<rect x="1100.7" y="593.6" width="79.4" height="4"/>
	</g>
	<g>
		<rect x="1100.7" y="625.4" width="79.4" height="4"/>
	</g>
	<g>
		<rect x="1084.8" y="641.2" width="31.7" height="4"/>
	</g>
	<g>
		<rect x="1084.8" y="688.9" width="47.6" height="4"/>
	</g>
	<g>
		<rect x="1084.8" y="657.1" width="63.5" height="4"/>
	</g>
	<g>
		<rect x="1084.8" y="673" width="31.7" height="4"/>
	</g>
	<g>
		<polygon points="1178.4,692 1161,674.6 1178.4,657.9 1180.8,660.3 1166.5,674.6 1180.8,689.6 		"/>
	</g>
	<g>
		<polygon points="1196.7,692 1194.3,689.6 1208.6,674.6 1194.3,660.3 1196.7,657.9 1214.1,674.6 		"/>
	</g>
	<g>
		<rect x="1180" y="577.8" width="15.9" height="4"/>
	</g>
	<g>
		<rect x="1100.7" y="530.1" width="15.9" height="4"/>
	</g>
	<g>
		<rect x="1132.4" y="530.1" width="31.7" height="4"/>
	</g>
	<g>
		<rect x="1180" y="530.1" width="15.9" height="4"/>
	</g>
	<g>
		<rect x="1084.8" y="609.5" width="31.7" height="4"/>
	</g>
	<g>
		<rect x="1132.4" y="609.5" width="31.7" height="4"/>
	</g>
	<g>
		<rect x="1132.4" y="641.2" width="15.9" height="4"/>
	</g>
	<g>
		<rect x="1164.1" y="641.2" width="31.7" height="4"/>
	</g>
	<g>
		<rect x="1180" y="609.5" width="15.9" height="4"/>
	</g>
	<g>
		<rect x="1132.4" y="673" width="15.9" height="4"/>
	</g>
	<g>
		<path d="M894.3,676.9c-16.7,0-25.4-8.7-33.3-16.7c-7.9-7.9-15.1-15.1-30.2-15.1h-79.4c-15.1,0-22.2,7.1-30.2,15.1
			c-7.9,7.9-16.7,16.7-33.3,16.7v-4c15.1,0,22.2-7.1,30.2-15.1c7.9-7.9,16.7-16.7,33.3-16.7h79.4c16.7,0,25.4,8.7,33.3,16.7
			c7.9,7.9,15.1,15.1,30.2,15.1V676.9z"/>
	</g>
	<g>
		<path d="M791.2,708.7h-119c-16.7,0-25.4-8.7-33.3-16.7c-7.9-7.9-15.1-15.1-30.2-15.1v-4c16.7,0,25.4,8.7,33.3,16.7
			c7.9,7.9,15.1,15.1,30.2,15.1h119c15.1,0,22.2-7.1,30.2-15.1c7.9-7.9,16.7-16.7,33.3-16.7v4c-15.1,0-22.2,7.1-30.2,15.1
			C815.8,700,807.8,708.7,791.2,708.7z"/>
	</g>
	<g>
		<circle cx="665" cy="674.6" r="7.9"/>
	</g>
	<g>
		<circle cx="585.6" cy="674.6" r="7.9"/>
	</g>
	<g>
		<circle cx="697.1" cy="706.3" r="7.9"/>
	</g>
	<g>
		<circle cx="759.4" cy="706.3" r="7.9"/>
	</g>
	<g>
		<circle cx="776.2" cy="674.6" r="7.9"/>
	</g>
	<g>
		<circle cx="922.3" cy="674.6" r="7.9"/>
	</g>
	<g>
		<path d="M975.4,667.8c6.6-3.6,13.3,1.9,12.1,8.4c-0.6,3.1-3.1,5.6-6.2,6.2c-6.5,1.2-11.9-5.4-8.4-12.1
			C973.5,669.2,974.3,668.3,975.4,667.8z"/>
	</g>
	<g>
		<circle cx="791.4" cy="642.8" r="7.9"/>
	</g>
</g>
</svg>
